<svg id="Capa_1" enable-background="new 0 0 512 512" height="512" viewBox="0 0 512 512" width="512" xmlns="http://www.w3.org/2000/svg"><g><g><g><g><path d="m212.645 403.448h86.711v70.055h-86.711z" fill="#a2c7f8"/></g></g><g><path d="m212.645 403.448h31.355v70.055h-31.355z" fill="#8db3df"/></g><g><path d="m343 499.996h-174c-5.523 0-10-4.477-10-10v-7.494c0-5.523 4.477-10 10-10h174c5.523 0 10 4.477 10 10v7.494c0 5.523-4.477 10-10 10z" fill="#d8ecfe"/></g><g><path d="m209 489.996v-7.494c0-5.523 4.477-10 10-10h-50c-5.523 0-10 4.477-10 10v7.494c0 5.523 4.477 10 10 10h50c-5.523 0-10-4.477-10-10z" fill="#c4e2ff"/></g><g><path d="m7.5 384.448c0 11.046 8.954 20 20 20h457c11.046 0 20-8.954 20-20v-29.7h-497z" fill="#d8ecfe"/></g><g><path d="m58 384.448v-29.7h-50.5v29.7c0 11.046 8.954 20 20 20h50.5c-11.046 0-20-8.955-20-20z" fill="#c4e2ff"/></g><g><path d="m504.5 354.748h-497v-281.765c0-8.284 6.716-15 15-15h467c8.284 0 15 6.716 15 15z" fill="#647fa0"/></g><path d="m38.936 328.312c-2.761 0-5-2.239-5-5v-233.893c0-2.761 2.239-5 5-5h19.064v-11.436c0-8.284 6.716-15 15-15h-50.5c-8.284 0-15 6.716-15 15v281.764h50.5v-26.436h-19.064z" fill="#5e6f90"/><g><path d="m33.936 323.312v-233.893c0-2.761 2.239-5 5-5h434.128c2.761 0 5 2.239 5 5v233.892c0 2.761-2.239 5-5 5h-434.128c-2.761.001-5-2.238-5-4.999z" fill="#fed2a4"/></g><g><path d="m75.872 323.312v-233.893c0-2.761 2.239-5 5-5h-41.936c-2.761 0-5 2.239-5 5v233.892c0 2.761 2.239 5 5 5h41.936c-2.761.001-5-2.238-5-4.999z" fill="#ffbd86"/></g><g><g><path d="m380.707 204.173-71.672 124.139h153.223l-71.672-124.139c-2.195-3.803-7.683-3.803-9.879 0z" fill="#0182fc"/></g><path d="m390.587 204.173c-2.196-3.803-7.684-3.803-9.88 0l-56.105 97.177 15.567 26.962h.608l60.741-105.206z" fill="#0172fb"/><path d="m254.453 179.848c-2.195-3.803-7.684-3.803-9.88 0l-30.906 53.532v55.616c0 2.761-2.239 5-5 5h-29.997l-19.812 34.316h181.311z" fill="#0593fc"/><g><path d="m208.667 293.996h-29.997l-19.812 34.316h31.142l19.914-34.492c-.401.104-.814.176-1.247.176z" fill="#0182fc"/></g><path d="m254.453 179.848c-2.195-3.803-7.684-3.803-9.88 0l-30.906 53.532v16.631l7.883 13.654c2.564 4.441 8.974 4.441 11.539 0l12.764-22.107c3.51-6.079 12.284-6.079 15.794 0l7.87 13.63c2.564 4.441 8.974 4.441 11.539 0l8.448-14.633z" fill="#fff"/><path d="m225.541 266.752 39.543-68.49-10.631-18.414c-2.195-3.803-7.684-3.803-9.88 0l-30.906 53.532v16.631l7.883 13.654c.94 1.628 2.397 2.653 3.991 3.087z" fill="#eaf6ff"/></g><path d="m407 122.996c-1.255 0-2.487.094-3.694.266l-22.04 22.04c-.172 1.207-.266 2.44-.266 3.694 0 14.359 11.641 26 26 26s26-11.641 26-26-11.641-26-26-26z" fill="#fe9901"/><path d="m417 124.992c-3.079-1.284-6.456-1.996-10-1.996-1.255 0-2.487.094-3.694.266l-22.04 22.04c-.172 1.207-.266 2.44-.266 3.694 0 14.359 11.641 26 26 26 3.544 0 6.921-.712 10-1.996-9.395-3.918-16-13.189-16-24.004s6.605-20.086 16-24.004z" fill="#fb8801"/></g><g><g><path d="m203.667 114.996h-128.667c-5.523 0-10 4.477-10 10v34.038l2.389 1h143.711l2.567-1v-34.038c0-5.523-4.477-10-10-10z" fill="#fe646f"/></g><g><path d="m96.333 124.996c0-5.523 4.477-10 10-10h-31.333c-5.523 0-10 4.477-10 10v34.038l2.389 1h31.333l-2.389-1z" fill="#fd4755"/></g><g><path d="m208.667 293.996h-138.667c-2.761 0-5-2.239-5-5v-129.962h148.667v129.962c0 2.761-2.239 5-5 5z" fill="#eaf6ff"/></g><g><path d="m96.333 288.996v-129.962h-31.333v129.962c0 2.761 2.239 5 5 5h31.333c-2.761 0-5-2.239-5-5z" fill="#d8ecfe"/></g><g><g><circle cx="159.167" cy="247.534" fill="#0593fc" r="13.5"/></g><g><circle cx="119.167" cy="204.534" fill="#0593fc" r="13.5"/></g></g></g><g><g><g><path d="m483.483 30.93-16.417-16.417c-3.356-3.356-8.798-3.356-12.155 0l-135.557 135.557.118 1.333 27.175 27.175 1.279.064 135.557-135.557c3.356-3.356 3.356-8.798 0-12.155z" fill="#8db3df"/></g></g><g><path d="m348.89 146.535 125.098-125.099-6.923-6.923c-3.356-3.356-8.798-3.356-12.155 0l-135.556 135.557.118 1.333s27.175 27.175 27.175 27.175l1.279.064s13-13 13-13l-12.036-12.036c-1.953-1.953-1.953-5.119 0-7.071z" fill="#799fca"/></g><g><g><path d="m319.354 150.07c-.808.808-1.447 1.769-1.879 2.827l-16.752 41.014c-.864 2.115 1.247 4.226 3.362 3.362l41.014-16.752c1.058-.432 2.019-1.071 2.827-1.879z" fill="#647fa0"/></g><g><path d="m429.11 37.484h22.398v40.406h-22.398z" fill="#c4e2ff" transform="matrix(.707 -.707 .707 .707 88.173 328.242)"/></g><g><path d="m421.324 40.709h22.398v18.385h-22.398z" fill="#b3dafe" transform="matrix(.707 -.707 .707 .707 91.399 320.457)"/></g></g></g><g><path d="m238 371.49c-4.143 0-7.5 3.358-7.5 7.5s3.357 7.5 7.5 7.5h36c4.143 0 7.5-3.358 7.5-7.5s-3.357-7.5-7.5-7.5z"/><path d="m90 255.034h49.576c3.028 7.881 10.657 13.5 19.591 13.5s16.563-5.619 19.591-13.5h9.909c4.143 0 7.5-3.358 7.5-7.5s-3.357-7.5-7.5-7.5h-9.909c-3.028-7.881-10.657-13.5-19.591-13.5s-16.563 5.619-19.591 13.5h-49.576c-4.143 0-7.5 3.358-7.5 7.5s3.357 7.5 7.5 7.5zm69.167-13.5c3.309 0 6 2.691 6 6s-2.691 6-6 6-6-2.691-6-6 2.691-6 6-6z"/><path d="m90 212.034h9.576c3.028 7.881 10.657 13.5 19.591 13.5s16.563-5.619 19.591-13.5h49.909c4.143 0 7.5-3.358 7.5-7.5s-3.357-7.5-7.5-7.5h-49.909c-3.028-7.881-10.657-13.5-19.591-13.5s-16.563 5.619-19.591 13.5h-9.576c-4.143 0-7.5 3.358-7.5 7.5s3.357 7.5 7.5 7.5zm29.167-13.5c3.309 0 6 2.691 6 6s-2.691 6-6 6-6-2.691-6-6 2.691-6 6-6z"/><circle cx="190.167" cy="135.534" r="7.5"/><circle cx="169.5" cy="135.534" r="7.5"/><circle cx="148.833" cy="135.534" r="7.5"/><path d="m489.5 50.483h-2.809l2.095-2.095c6.275-6.275 6.275-16.486 0-22.761l-16.418-16.418c-6.275-6.274-16.485-6.274-22.761 0l-41.271 41.273h-385.836c-12.406 0-22.5 10.093-22.5 22.5v311.464c0 15.164 12.336 27.5 27.5 27.5h177.645v53.055h-36.145c-9.649 0-17.5 7.851-17.5 17.5v7.494c0 9.649 7.851 17.5 17.5 17.5h174c9.649 0 17.5-7.851 17.5-17.5v-7.494c0-9.649-7.851-17.5-17.5-17.5h-36.145v-53.055h80.145c4.143 0 7.5-3.358 7.5-7.5s-3.357-7.5-7.5-7.5h-359.5c-6.893 0-12.5-5.607-12.5-12.5v-22.2h482v22.2c0 6.893-5.607 12.5-12.5 12.5h-62.5c-4.143 0-7.5 3.358-7.5 7.5s3.357 7.5 7.5 7.5h62.5c15.164 0 27.5-12.336 27.5-27.5v-311.463c0-12.406-10.094-22.5-22.5-22.5zm-146.5 429.519c1.379 0 2.5 1.122 2.5 2.5v7.494c0 1.378-1.121 2.5-2.5 2.5h-174c-1.379 0-2.5-1.122-2.5-2.5v-7.494c0-1.378 1.121-2.5 2.5-2.5zm-122.855-68.054h71.711v53.055h-71.711zm240.069-392.131c.428-.427 1.122-.426 1.548 0l16.417 16.417c.427.427.427 1.122 0 1.548l-15.665 15.665-17.965-17.965zm-26.272 26.272 17.964 17.965-5.231 5.231-17.964-17.965zm-15.838 15.838 17.965 17.965-88.751 88.751-17.965-17.965zm-11.104 68.569c10.201 0 18.5 8.299 18.5 18.5s-8.299 18.5-18.5 18.5-18.5-8.299-18.5-18.5c0-.119.016-.234.018-.353l18.132-18.129c.117-.002.232-.018.35-.018zm-72.706 46.337-22.197 9.066 9.066-22.197zm162.706 170.415h-482v-274.265c0-4.135 3.364-7.5 7.5-7.5h370.837l-11.436 11.436h-254.901c-4.143 0-7.5 3.358-7.5 7.5s3.357 7.5 7.5 7.5h239.902l-52.901 52.904c-1.495 1.508-2.664 3.268-3.469 5.238l-16.753 41.016c-1.537 3.767-.671 8.06 2.206 10.936 1.931 1.931 4.499 2.955 7.118 2.955 1.284 0 2.579-.246 3.818-.751l41.015-16.752c1.914-.782 3.626-1.914 5.106-3.349l22.816-22.813c4.915 12.399 17.015 21.194 31.143 21.194 18.472 0 33.5-15.028 33.5-33.5 0-14.126-8.793-26.225-21.19-31.141l25.939-25.936h25.314v228.893h-3.975l-27.18-47.077c-2.07-3.588-6.66-4.817-10.245-2.745-3.587 2.071-4.816 6.658-2.745 10.245l22.85 39.577h-104.77l-11.237-19.463 52.385-90.733 23.271 40.308c2.072 3.587 6.659 4.817 10.245 2.745 3.587-2.071 4.816-6.658 2.745-10.245l-24.827-43.001c-2.387-4.134-6.661-6.602-11.435-6.602s-9.049 2.468-11.436 6.602l-49.61 85.927-63.654-110.251c-2.387-4.134-6.661-6.602-11.436-6.602-4.773 0-9.048 2.468-11.435 6.602l-16.911 29.291v-80.393c0-9.649-7.851-17.5-17.5-17.5h-128.664c-9.649 0-17.5 7.851-17.5 17.5v164c0 6.893 5.607 12.5 12.5 12.5h95.679l-11.152 19.316h-113.09v-228.895h50.563c4.143 0 7.5-3.358 7.5-7.5s-3.357-7.5-7.5-7.5h-53.063c-6.893 0-12.5 5.607-12.5 12.5v233.893c0 6.893 5.607 12.5 12.5 12.5h434.127c6.893 0 12.5-5.607 12.5-12.5v-233.893c0-6.893-5.607-12.5-12.5-12.5h-12.812l11.438-11.436h17.81c4.136 0 7.5 3.365 7.5 7.5zm-290.833-180.714v119.962h-133.667v-119.962zm-133.667-15v-26.538c0-1.378 1.121-2.5 2.5-2.5h128.667c1.379 0 2.5 1.122 2.5 2.5v26.538zm110.5 149.962h25.667c6.893 0 12.5-5.607 12.5-12.5v-15.887c1.876.9 3.965 1.387 6.153 1.387 5.12 0 9.704-2.648 12.263-7.081l12.764-22.107c.386-.668.976-.809 1.401-.809.427 0 1.017.141 1.402.809l7.869 13.629c2.56 4.435 7.145 7.082 12.266 7.082 5.12 0 9.705-2.647 12.264-7.081l1.954-3.384 37.676 65.257h-155.331zm38.167-53.493v-12.614l28.347-49.097 31.328 54.262-5.558 9.626-7.144-12.373c-3.004-5.203-8.384-8.309-14.393-8.309-6.008 0-11.388 3.106-14.392 8.309l-12.038 20.85z"/></g></g></svg>