<?xml version="1.0" encoding="utf-8"?>
<!-- Generator: Adobe Illustrator 23.0.5, SVG Export Plug-In . SVG Version: 6.00 Build 0)  -->
<svg version="1.1" xmlns="http://www.w3.org/2000/svg" xmlns:xlink="http://www.w3.org/1999/xlink" x="0px" y="0px"
	 viewBox="0 0 500 500" style="enable-background:new 0 0 500 500;" xml:space="preserve">
<style type="text/css">
	.st0{opacity:0.7;fill:#FFFFFF;}
	.st1{fill:#92E3A9;}
	.st2{display:none;}
	.st3{display:inline;fill:none;stroke:#263238;stroke-linecap:round;stroke-linejoin:round;stroke-miterlimit:10;}
	.st4{fill:none;stroke:#263238;stroke-linecap:round;stroke-linejoin:round;stroke-miterlimit:10;}
	.st5{fill:#92E3A9;stroke:#263238;stroke-linecap:round;stroke-linejoin:round;stroke-miterlimit:10;}
	.st6{fill:#FFFFFF;stroke:#263238;stroke-linecap:round;stroke-linejoin:round;stroke-miterlimit:10;}
	.st7{fill:none;stroke:#263238;stroke-width:2;stroke-linecap:round;stroke-linejoin:round;stroke-miterlimit:10;}
	.st8{fill:none;stroke:#263238;stroke-linecap:round;stroke-linejoin:round;}
	.st9{fill:none;stroke:#263238;stroke-linecap:round;stroke-linejoin:round;stroke-dasharray:0.9984,2.9953;}
	.st10{fill:none;stroke:#263238;stroke-linecap:round;stroke-linejoin:round;stroke-dasharray:0.9981,2.9944;}
	.st11{fill:#263238;stroke:#263238;stroke-linecap:round;stroke-linejoin:round;stroke-miterlimit:10;}
	.st12{fill:none;stroke:#FFFFFF;stroke-linecap:round;stroke-linejoin:round;stroke-miterlimit:10;}
	.st13{fill:#263238;}
	.st14{opacity:0.3;clip-path:url(#XMLID_2_);fill-opacity:0.7;}
	.st15{opacity:0.3;clip-path:url(#XMLID_3_);fill-opacity:0.7;}
	.st16{opacity:0.2;clip-path:url(#XMLID_4_);fill-opacity:0.7;}
	.st17{opacity:0.3;clip-path:url(#XMLID_5_);fill-opacity:0.7;}
	.st18{opacity:0.3;clip-path:url(#XMLID_6_);fill-opacity:0.7;}
	.st19{fill:#757575;stroke:#263238;stroke-linecap:round;stroke-linejoin:round;stroke-miterlimit:10;}
	.st20{fill:#999999;stroke:#263238;stroke-linecap:round;stroke-linejoin:round;stroke-miterlimit:10;}
	.st21{fill:none;stroke:#263238;stroke-linecap:round;stroke-linejoin:round;stroke-dasharray:0.978,2.9341;}
	.st22{fill:none;stroke:#263238;stroke-linecap:round;stroke-linejoin:round;stroke-dasharray:1,3;}
</style>
<g id="Background_Simple">
	<g>
		<path class="st0" d="M67.9,167.1c0,0-27.9,72,11.3,144.5c39.2,72.5,119.9,110.8,184.5,143.5c64.6,32.7,131.7,16.8,163.5-36.8
			c31.9-53.6-11.8-91.9-11.9-168.4c-0.1-76.5,11.4-96.7-30-161.4C344,23.9,242.3,9.6,165.5,57.5C88.6,105.5,67.9,167.1,67.9,167.1z"
			/>
	</g>
	<g>
		<path class="st1" d="M69,431.7h211.2c0.9-1.4,1.7-2.7,2.6-4.1c22.7-34.6,59.1-59.2,98.8-70.8c17.8-5.2,37.1-8.3,51.4-20.1
			c14.7-12.1,21.5-31.5,24.4-50.3c3.5-22.8,1.6-48.4-13.9-65.5c-18.2-20.1-48.7-22.4-72.4-35.6c-40.8-22.7-56.6-74.4-93.7-102.7
			C254,64.7,222.4,57.8,194,61.7c-40.2,5.6-78,32.5-89.4,72c-3.2,11-4.4,22.8-3.4,35.4c1.8,23.6,6.9,47.4,2.1,70.5
			c-5.3,25.5-21.9,47-31.8,71.1c-12.3,30-14,63.6-8.8,95.6C64.2,414.8,66.2,423.4,69,431.7z"/>
		<path class="st0" d="M69,431.7h211.2c0.9-1.4,1.7-2.7,2.6-4.1c22.7-34.6,59.1-59.2,98.8-70.8c17.8-5.2,37.1-8.3,51.4-20.1
			c14.7-12.1,21.5-31.5,24.4-50.3c3.5-22.8,1.6-48.4-13.9-65.5c-18.2-20.1-48.7-22.4-72.4-35.6c-40.8-22.7-56.6-74.4-93.7-102.7
			C254,64.7,222.4,57.8,194,61.7c-40.2,5.6-78,32.5-89.4,72c-3.2,11-4.4,22.8-3.4,35.4c1.8,23.6,6.9,47.4,2.1,70.5
			c-5.3,25.5-21.9,47-31.8,71.1c-12.3,30-14,63.6-8.8,95.6C64.2,414.8,66.2,423.4,69,431.7z"/>
	</g>
</g>
<g id="Floor" class="st2">
	<line class="st3" x1="42" y1="431.7" x2="460.3" y2="431.7"/>
</g>
<g id="Graphics">
	<g>
		<path class="st4" d="M279,113.4V97.7l-11.8-1c-0.7-2.5-1.7-4.8-2.9-7l7.6-9l-11.1-11.1l-9,7.6c-2.2-1.2-4.6-2.2-7-2.9l-1-11.8H228
			l-1,11.8c-2.5,0.7-4.8,1.7-7,2.9l-9-7.6l-11.1,11.1l7.6,9c-1.2,2.2-2.2,4.6-2.9,7l-11.8,1v15.7l11.8,1c0.7,2.5,1.7,4.8,2.9,7
			l-7.6,9l11.1,11.1l9-7.6c2.2,1.2,4.6,2.2,7,2.9l1,11.8h15.7l1-11.8c2.5-0.7,4.8-1.7,7-2.9l9,7.6l11.1-11.1l-7.6-9
			c1.2-2.2,2.2-4.6,2.9-7L279,113.4z M235.9,123.8c-10.1,0-18.2-8.2-18.2-18.2c0-10.1,8.2-18.2,18.2-18.2c10.1,0,18.2,8.2,18.2,18.2
			C254.1,115.6,245.9,123.8,235.9,123.8z"/>
		<path class="st4" d="M447.7,266.8v-7.5l-5.6-0.5c-0.3-1.2-0.8-2.3-1.4-3.4l3.6-4.3l-5.3-5.3l-4.3,3.6c-1.1-0.6-2.2-1.1-3.4-1.4
			l-0.5-5.6h-7.5l-0.5,5.6c-1.2,0.3-2.3,0.8-3.4,1.4l-4.3-3.6l-5.3,5.3l3.6,4.3c-0.6,1.1-1.1,2.2-1.4,3.4l-5.6,0.5v7.5l5.6,0.5
			c0.3,1.2,0.8,2.3,1.4,3.4l-3.6,4.3l5.3,5.3l4.3-3.6c1.1,0.6,2.2,1.1,3.4,1.4l0.5,5.6h7.5l0.5-5.6c1.2-0.3,2.3-0.8,3.4-1.4l4.3,3.6
			l5.3-5.3l-3.6-4.3c0.6-1.1,1.1-2.2,1.4-3.4L447.7,266.8z M427,271.8c-4.8,0-8.7-3.9-8.7-8.7c0-4.8,3.9-8.7,8.7-8.7
			c4.8,0,8.7,3.9,8.7,8.7C435.8,267.9,431.8,271.8,427,271.8z"/>
		<g>
			<path class="st4" d="M442,129.8c0.3-1.5,0.5-3,0.5-4.6c0-11.3-9.2-20.5-20.5-20.5c-1.9,0-3.6,0.3-5.4,0.7c-3.4-6-9.8-10-17.2-10
				c-10.5,0-19,8.2-19.7,18.5c-1-0.2-2-0.3-3-0.3c-8.3,0-15.1,6.2-16,14.3c-4.9,0.1-8.8,4.1-8.8,9c0,5,4,9,9,9h75.3c5,0,9-4,9-9
				C445.3,133.9,444,131.4,442,129.8z"/>
			<g>
				<line class="st4" x1="400.6" y1="138.8" x2="400.6" y2="159.6"/>
				<line class="st4" x1="400.6" y1="126.4" x2="400.6" y2="134.7"/>
				<line class="st4" x1="400.6" y1="118.6" x2="400.6" y2="123.1"/>
				<polyline class="st4" points="396.7,157.2 400.6,162 404.5,157.2 				"/>
			</g>
		</g>
		<g>
			<path class="st4" d="M212.6,373.2c0.3-1.5,0.5-3,0.5-4.6c0-11.3-9.2-20.5-20.5-20.5c-1.9,0-3.6,0.3-5.4,0.7
				c-3.4-6-9.8-10-17.2-10c-10.5,0-19,8.2-19.7,18.5c-1-0.2-2-0.3-3-0.3c-8.3,0-15.1,6.2-16,14.3c-4.9,0.1-8.8,4.1-8.8,9
				c0,5,4,9,9,9H207c5,0,9-4,9-9C215.9,377.3,214.6,374.8,212.6,373.2z"/>
			<g>
				<line class="st4" x1="171.2" y1="385.2" x2="171.2" y2="364.4"/>
				<line class="st4" x1="171.2" y1="397.6" x2="171.2" y2="389.3"/>
				<line class="st4" x1="171.2" y1="405.4" x2="171.2" y2="400.9"/>
				<polyline class="st4" points="175.2,366.8 171.2,362 167.3,366.8 				"/>
			</g>
		</g>
	</g>
</g>
<g id="Interface">
	<g>
		<path class="st5" d="M309.2,126H49.2v-11.9c0-2.3,1.9-4.2,4.2-4.2h251.5c2.3,0,4.2,1.9,4.2,4.2V126z"/>
		<rect x="60.6" y="129" class="st6" width="262.7" height="184.9"/>
		<path class="st6" d="M327.4,117.9c0,2.2-1.8,4-4,4s-4-1.8-4-4c0-2.2,1.8-4,4-4S327.4,115.7,327.4,117.9z"/>
		<path class="st6" d="M313.2,117.9c0,2.2-1.8,4-4,4c-2.2,0-4-1.8-4-4c0-2.2,1.8-4,4-4C311.4,113.9,313.2,115.7,313.2,117.9z"/>
		<path class="st6" d="M299,117.9c0,2.2-1.8,4-4,4c-2.2,0-4-1.8-4-4c0-2.2,1.8-4,4-4C297.2,113.9,299,115.7,299,117.9z"/>
		<g>
			<line class="st7" x1="315.4" y1="136.9" x2="305" y2="136.9"/>
			<line class="st7" x1="315.4" y1="141.1" x2="305" y2="141.1"/>
			<line class="st7" x1="315.4" y1="145.3" x2="305" y2="145.3"/>
		</g>
		<g>
			<line class="st7" x1="78.8" y1="246" x2="157.5" y2="246"/>
			<line class="st7" x1="78.8" y1="252.2" x2="157.5" y2="252.2"/>
			<line class="st7" x1="78.8" y1="258.5" x2="140.9" y2="258.5"/>
		</g>
		<g>
			<g>
				<g>
					<line class="st8" x1="245.8" y1="131.1" x2="245.8" y2="131.6"/>
					<line class="st9" x1="245.8" y1="134.5" x2="245.8" y2="308.8"/>
					<line class="st8" x1="245.8" y1="310.3" x2="245.8" y2="310.8"/>
				</g>
			</g>
			<g>
				<g>
					<line class="st8" x1="63.8" y1="272.4" x2="64.3" y2="272.4"/>
					<line class="st10" x1="67.3" y1="272.4" x2="317.3" y2="272.4"/>
					<line class="st8" x1="318.8" y1="272.4" x2="319.3" y2="272.4"/>
				</g>
			</g>
			<rect x="244" y="270.7" class="st6" width="3.4" height="3.4"/>
		</g>
		<g>
			<path class="st5" d="M167,58h-49.3c-1.2,0-2.2,1-2.2,2.2v22.9c0,1.2,1,2.2,2.2,2.2h22.1l2.5,9l2.5-9H167c1.2,0,2.2-1,2.2-2.2
				V60.2C169.1,59,168.2,58,167,58z"/>
			<g>
				<line class="st7" x1="123.7" y1="64.6" x2="160.9" y2="64.6"/>
				<line class="st7" x1="123.7" y1="69.3" x2="160.9" y2="69.3"/>
				<line class="st7" x1="123.7" y1="74" x2="160.9" y2="74"/>
				<line class="st7" x1="123.7" y1="78.7" x2="151.8" y2="78.7"/>
			</g>
		</g>
		<g>
			<rect x="93.2" y="301.6" class="st11" width="53.7" height="33.6"/>
			<rect x="93.2" y="301.6" class="st5" width="53.7" height="5.1"/>
			<g>
				<line class="st12" x1="98.7" y1="311" x2="112.4" y2="311"/>
				<line class="st12" x1="105.5" y1="314.8" x2="129.3" y2="314.8"/>
				<line class="st12" x1="102.5" y1="318.4" x2="109.5" y2="318.4"/>
				<line class="st12" x1="105.5" y1="322.6" x2="121.5" y2="322.6"/>
				<line class="st12" x1="98.7" y1="326.4" x2="112.4" y2="326.4"/>
			</g>
		</g>
		<g>
			<line class="st4" x1="232" y1="239.2" x2="185.9" y2="239.2"/>
			<path class="st4" d="M232.9,260.5c0,0,0-21.4-23.9-21.4S185,260.5,185,260.5"/>
			<circle class="st5" cx="232.9" cy="260.5" r="2"/>
			<path class="st5" d="M183,260.5c0-1.1,0.9-2,2-2c1.1,0,2,0.9,2,2s-0.9,2-2,2C183.9,262.6,183,261.6,183,260.5z"/>
			<g>
				
					<rect x="231.1" y="237.4" transform="matrix(-1 -1.224647e-16 1.224647e-16 -1 465.7553 478.2645)" class="st5" width="3.5" height="3.5"/>
				
					<rect x="207.2" y="237.4" transform="matrix(-1 -1.224647e-16 1.224647e-16 -1 417.9178 478.2645)" class="st5" width="3.5" height="3.5"/>
				
					<rect x="183.3" y="237.4" transform="matrix(-1 -1.224647e-16 1.224647e-16 -1 370.0803 478.2645)" class="st5" width="3.5" height="3.5"/>
			</g>
		</g>
		<path class="st5" d="M107.4,174.9v-7.1l-5.3-0.5c-0.3-1.1-0.8-2.2-1.3-3.2l3.4-4.1l-5-5l-4.1,3.4c-1-0.6-2.1-1-3.2-1.3l-0.5-5.3
			h-7.1l-0.5,5.3c-1.1,0.3-2.2,0.8-3.2,1.3l-4.1-3.4l-5,5l3.4,4.1c-0.6,1-1,2.1-1.3,3.2l-5.3,0.5v7.1l5.3,0.5
			c0.3,1.1,0.8,2.2,1.3,3.2l-3.4,4.1l5,5l4.1-3.4c1,0.6,2.1,1,3.2,1.3l0.5,5.3h7.1l0.5-5.3c1.1-0.3,2.2-0.8,3.2-1.3l4.1,3.4l5-5
			l-3.4-4.1c0.6-1,1-2.1,1.3-3.2L107.4,174.9z M88,179.5c-4.5,0-8.2-3.7-8.2-8.2c0-4.5,3.7-8.2,8.2-8.2c4.5,0,8.2,3.7,8.2,8.2
			C96.2,175.9,92.6,179.5,88,179.5z"/>
		<path class="st5" d="M131.5,190.7v-4.8l-3.6-0.3c-0.2-0.8-0.5-1.5-0.9-2.2l2.3-2.8l-3.4-3.4l-2.8,2.3c-0.7-0.4-1.4-0.7-2.2-0.9
			l-0.3-3.6h-4.8l-0.3,3.6c-0.8,0.2-1.5,0.5-2.2,0.9l-2.8-2.3l-3.4,3.4l2.3,2.8c-0.4,0.7-0.7,1.4-0.9,2.2l-3.6,0.3v4.8l3.6,0.3
			c0.2,0.8,0.5,1.5,0.9,2.2l-2.3,2.8l3.4,3.4l2.8-2.3c0.7,0.4,1.4,0.7,2.2,0.9l0.3,3.6h4.8l0.3-3.6c0.8-0.2,1.5-0.5,2.2-0.9l2.8,2.3
			l3.4-3.4l-2.3-2.8c0.4-0.7,0.7-1.4,0.9-2.2L131.5,190.7z M118.2,193.9c-3.1,0-5.6-2.5-5.6-5.6c0-3.1,2.5-5.6,5.6-5.6
			c3.1,0,5.6,2.5,5.6,5.6C123.8,191.4,121.3,193.9,118.2,193.9z"/>
		<g>
			<line class="st7" x1="255.6" y1="284.1" x2="294.4" y2="284.1"/>
			<line class="st7" x1="255.6" y1="290.3" x2="294.4" y2="290.3"/>
			<line class="st7" x1="255.6" y1="296.7" x2="277.7" y2="296.7"/>
		</g>
		<path class="st5" d="M204.6,299.2h-20.4c-2.8,0-5-2.2-5-5l0,0c0-2.8,2.2-5,5-5h20.4c2.8,0,5,2.2,5,5l0,0
			C209.6,297,207.4,299.2,204.6,299.2z"/>
		<path class="st5" d="M242.6,299.2h-20.4c-2.8,0-5-2.2-5-5l0,0c0-2.8,2.2-5,5-5h20.4c2.8,0,5,2.2,5,5l0,0
			C247.6,297,245.4,299.2,242.6,299.2z"/>
		<g>
			<rect x="258.5" y="192" class="st6" width="43.2" height="43.2"/>
			<line class="st6" x1="258.5" y1="192" x2="301.7" y2="235.2"/>
			<line class="st6" x1="301.7" y1="192" x2="258.5" y2="235.2"/>
		</g>
		<g>
			<rect x="295" y="166.3" class="st11" width="53.7" height="33.6"/>
			<rect x="295" y="166.3" class="st5" width="53.7" height="5.1"/>
			<g>
				<line class="st12" x1="300.5" y1="175.7" x2="314.2" y2="175.7"/>
				<line class="st12" x1="307.3" y1="179.5" x2="331.1" y2="179.5"/>
				<line class="st12" x1="304.3" y1="183.1" x2="311.3" y2="183.1"/>
				<line class="st12" x1="307.3" y1="187.3" x2="323.3" y2="187.3"/>
				<line class="st12" x1="300.5" y1="191.1" x2="314.2" y2="191.1"/>
			</g>
		</g>
		<g>
			<polygon class="st6" points="275.4,142.9 275.4,153 271,157.4 260.9,157.4 260.9,142.9 			"/>
			<polygon class="st6" points="275.4,153 271,157.4 271,153 			"/>
		</g>
		<g>
			<polygon class="st6" points="120.8,220.9 120.8,231 116.3,235.5 106.3,235.5 106.3,220.9 			"/>
			<polygon class="st6" points="120.8,231 116.3,235.5 116.3,231 			"/>
		</g>
		<g>
			<polygon class="st6" points="65.9,283.1 65.9,293.2 61.4,297.6 51.3,297.6 51.3,283.1 			"/>
			<polygon class="st6" points="65.9,293.2 61.4,297.6 61.4,293.2 			"/>
		</g>
	</g>
</g>
<g id="Character">
	<g>
		<path class="st6" d="M247.9,221.6c-5.3,0.5-12-5.9-12-5.9s-1,1-1.9-0.2c-0.9-1.2-4.6-4.1-4.8-6.6c-0.2-2.5,4.2-6.5,4.2-6.5
			c-3.4,0.9-3.8-1.1-3.8-1.1s5.7-4.7,7.7-4.8c0.8,0,4.2,1.9,7.5,4.6c3.4,2.8,9.9,12.5,9.9,12.5s21.9,15.9,27.4,19.9
			c7.3,5.4,15.9,14.9,15.9,14.9s29,13.1,37,20.3l-10.8,25.6c0,0-26.4-17.7-29-22.2c-2.6-4.5-5.3-1.8-7.9-4.7
			c-2.6-2.9-5.2-6.3-5.2-6.3s-6.4-2.8-12.6-9.1c-6.2-6.3-11.6-16-15-21.8C251.1,224.3,247.9,221.6,247.9,221.6z"/>
		<path class="st6" d="M249.5,217.8c0,0-7.9-1.9-8.5-7.1c-0.2-1.7-1.7-3.6-1.7-3.6s-7.3-0.4-6.9-3.4l9.8-0.9c0,0,5.4,1.8,8.5,7.2"/>
		<path class="st4" d="M235.9,215.7c0,0,0.5-0.7,0.3-2.1c0,0,2.2-0.4,1.9-2.3c0,0,3.2-0.4,1.1-4.2"/>
		<path class="st4" d="M238.1,211.3c0,0-4.3-3.2-4.8-4.6"/>
		<path class="st4" d="M236.2,213.6c0,0-4.6-2.8-4.7-4.4"/>
		<path class="st4" d="M237.2,199.2c0,0-1.5,2.6-3.9,3.2"/>
		<path class="st4" d="M236.5,200.2c0,0,1.2,0.6,2.2,1.4"/>
		<path class="st13" d="M404.1,288.8c0,0-17.3-7.5-34.9-11.7c-17.6-4.1-46-7.8-46-7.8s7.8,79.8,5.8,84.6
			c-2.1,4.8-14.4,20.9-14.4,20.9s66.9,26.1,78.6,28.3c11.7,2.2,5.6-38.2,5.6-38.2S411,313.5,404.1,288.8z"/>
		<path class="st6" d="M380.1,280.2c0,0,1.6,3-2.6,4.6c-10.8,4-22.4,0.5-21.1-3.8c0.5-1.6,3.1,0,3-6c0-0.8-0.3-1.7-0.7-2.7
			c-0.7-1.5-1.7-3.1-2.8-4.6c-1.8-2.6-3.7-4.6-3.7-4.6s17.2-11,29.9,0C382.1,263.1,377.4,265.5,380.1,280.2z"/>
		<g>
			<defs>
				<path id="XMLID_529_" d="M401.4,422.4c-6.8,11-41.1,16.2-59.9,15.7c-18.7-0.5-72.7-26-76.4-31.4c-3.4-5-11.7-21.6,1.1-31.6
					c1-0.8,2.2-1.5,3.5-2.2c8.8-4.8,67.3,10.3,67.3,10.3s3.6-2.3,4.9-2.1c4.1,0.5,7,3.8,15.2,6.2c5.8,1.6,21.5-4.7,31.6,0.8
					c1.1,0.6,2.1,1.3,3.1,2.2C401.2,399.1,408.2,411.3,401.4,422.4z"/>
			</defs>
			<use xlink:href="#XMLID_529_"  style="overflow:visible;fill:#92E3A9;"/>
			<clipPath id="XMLID_2_">
				<use xlink:href="#XMLID_529_"  style="overflow:visible;"/>
			</clipPath>
			<path class="st14" d="M388.8,387.9c-10.3-0.7-19.5,1.5-25.9,5.3c-7.6,4.5-43.5,21.8-43.5,21.8c0.1-1.9,2.1-5.6,2.1-5.6
				c-3.4-3-12.2-5.4-12.2-5.4c-6.9-5.8-34-23.3-42.9-28.9c1-0.8,2.2-1.5,3.5-2.2c8.8-4.8,67.3,10.3,67.3,10.3s3.6-2.3,4.9-2.1
				c4.1,0.5,7,3.8,15.2,6.2C363,388.8,378.7,382.4,388.8,387.9z"/>
			
				<use xlink:href="#XMLID_529_"  style="overflow:visible;fill:none;stroke:#263238;stroke-linecap:round;stroke-linejoin:round;stroke-miterlimit:10;"/>
		</g>
		<g>
			<path class="st6" d="M390.9,432.3l0.9,3.8c0,0-2.3,6.5-12.4,7.6s-16.1,3.3-21,3.6s-7.7-0.1-7.7-0.1l-1-1.5L390.9,432.3z"/>
			<g>
				<defs>
					<path id="XMLID_528_" d="M332.2,431.9l17.5,13.7c0,0,13.6-1.1,25.1-3.8l0,0c8.3-1.9,15.5-4.7,15.9-8.5
						c0.6-5.7-5.5-7.3-12.8-7.1c-1.4,0-2.8,0.1-4.2,0.3c-11.7,1.3-26.5-5.2-26.5-5.2L332.2,431.9z"/>
				</defs>
				<use xlink:href="#XMLID_528_"  style="overflow:visible;fill:#263238;"/>
				<clipPath id="XMLID_3_">
					<use xlink:href="#XMLID_528_"  style="overflow:visible;"/>
				</clipPath>
				<path class="st15" d="M390.8,433.3c-3.1,1.2-7.1,3-9.7,4.8c0,0-16.3,8.4-41.3-0.3l-7.6-5.9l15.1-10.5c0,0,14.8,6.4,26.5,5.2
					c1.4-0.1,2.8-0.3,4.2-0.3C385.2,426.1,391.3,427.7,390.8,433.3z"/>
				
					<use xlink:href="#XMLID_528_"  style="overflow:visible;fill:none;stroke:#263238;stroke-linecap:round;stroke-linejoin:round;stroke-miterlimit:10;"/>
			</g>
			<g>
				<defs>
					<path id="XMLID_527_" d="M348.5,437.3c-3.2,0.5,0.3,7,4.6,5C357.4,440.4,351.6,436.8,348.5,437.3z"/>
				</defs>
				<use xlink:href="#XMLID_527_"  style="overflow:visible;fill:#FFFFFF;"/>
				<clipPath id="XMLID_4_">
					<use xlink:href="#XMLID_527_"  style="overflow:visible;"/>
				</clipPath>
				<path class="st16" d="M354.4,441.3c-2.2-0.3-4.4-0.7-6.8-1.2c-0.6-1.3-0.5-2.6,0.9-2.8C351.1,436.9,355.6,439.3,354.4,441.3z"/>
				
					<use xlink:href="#XMLID_527_"  style="overflow:visible;fill:none;stroke:#263238;stroke-linecap:round;stroke-linejoin:round;stroke-miterlimit:10;"/>
			</g>
			<g>
				<defs>
					<path id="XMLID_526_" d="M374.8,441.9c8.3-1.9,15.5-4.7,15.9-8.5c0.6-5.7-5.5-7.3-12.8-7.1
						C377.6,426.7,370.5,433.5,374.8,441.9z"/>
				</defs>
				<use xlink:href="#XMLID_526_"  style="overflow:visible;fill:#FFFFFF;"/>
				<clipPath id="XMLID_5_">
					<use xlink:href="#XMLID_526_"  style="overflow:visible;"/>
				</clipPath>
				<path class="st17" d="M390.8,433.3c-3.1,1.2-7.1,3-9.7,4.8c0,0-2.4,1.2-6.8,2.3c-2.8-7.7,3.5-13.8,3.8-14
					C385.2,426.1,391.3,427.7,390.8,433.3z"/>
				
					<use xlink:href="#XMLID_526_"  style="overflow:visible;fill:none;stroke:#263238;stroke-linecap:round;stroke-linejoin:round;stroke-miterlimit:10;"/>
			</g>
			<g>
				<path class="st6" d="M368.9,434.8C368.9,434.8,368.9,434.8,368.9,434.8c0.5,0,0.9-0.3,1-0.8c0.2-3.6,3-6.6,3-6.6
					c0.3-0.3,0.3-0.9,0-1.2c-0.3-0.3-0.9-0.3-1.2,0c-0.1,0.1-3.3,3.4-3.5,7.7C368.1,434.3,368.4,434.7,368.9,434.8z"/>
			</g>
			<g>
				<path class="st6" d="M365.4,435C365.4,435,365.5,435,365.4,435c0.6,0,0.9-0.4,1-0.8c0.1-3.7,2.6-6.8,2.7-6.9
					c0.3-0.4,0.2-0.9-0.1-1.2c-0.4-0.3-0.9-0.3-1.2,0.1c-0.1,0.1-3,3.7-3,7.9C364.6,434.6,365,434.9,365.4,435z"/>
			</g>
			<g>
				<path class="st6" d="M361.3,434.5C361.3,434.5,361.3,434.5,361.3,434.5c0.5,0,0.9-0.3,1-0.8c0.3-3,2.9-6.9,2.9-7
					c0.3-0.4,0.2-0.9-0.2-1.2c-0.4-0.3-0.9-0.2-1.2,0.2c-0.1,0.2-2.9,4.3-3.2,7.8C360.4,434.1,360.8,434.5,361.3,434.5z"/>
			</g>
			<g>
				<path class="st6" d="M357.3,434.1c0.1,0,0.2,0,0.2,0c0.5-0.1,0.8-0.5,0.7-1c-0.6-3.7,2.8-6.8,2.8-6.9c0.4-0.3,0.4-0.9,0.1-1.2
					c-0.3-0.4-0.9-0.4-1.2-0.1c-0.2,0.2-4.2,3.8-3.4,8.4C356.6,433.8,357,434.1,357.3,434.1z"/>
			</g>
			<g>
				<path class="st6" d="M353.1,433.1c0.1,0,0.2,0,0.3,0c0.5-0.1,0.8-0.6,0.7-1c-0.8-3.3,2.5-7,2.5-7c0.3-0.4,0.3-0.9-0.1-1.2
					c-0.4-0.3-0.9-0.3-1.2,0.1c-0.2,0.2-3.9,4.4-2.9,8.6C352.4,432.8,352.7,433.1,353.1,433.1z"/>
			</g>
		</g>
		<g>
			<path class="st6" d="M263,426.7l-1.3,3.7c0,0,1.6,6.7,11.5,8.9c9.9,2.1,15.7,5,20.5,5.8c4.8,0.8,7.7,0.7,7.7,0.7l1.1-1.4
				L263,426.7z"/>
			<g>
				<defs>
					<path id="XMLID_525_" d="M321.4,432.4l-18.9,11.8c0,0-13.4-2.5-24.6-6.4v0c-8.1-2.8-15-6.3-15-10.1c0-5.8,6.3-6.7,13.5-5.7
						c1.4,0.2,2.7,0.4,4.1,0.7c11.5,2.5,26.9-2.4,26.9-2.4L321.4,432.4z"/>
				</defs>
				<use xlink:href="#XMLID_525_"  style="overflow:visible;fill:#263238;"/>
				<clipPath id="XMLID_6_">
					<use xlink:href="#XMLID_525_"  style="overflow:visible;"/>
				</clipPath>
				<path class="st18" d="M321.4,432.4l-11.1,7c-11.1-3.4-18.4-10.5-22.5-15.9c9.8,0,19.7-3.1,19.7-3.1L321.4,432.4z"/>
				
					<use xlink:href="#XMLID_525_"  style="overflow:visible;fill:none;stroke:#263238;stroke-linecap:round;stroke-linejoin:round;stroke-miterlimit:10;"/>
			</g>
			<path class="st6" d="M277.9,437.9c-8.1-2.8-15-6.3-15-10.1c0-5.8,6.3-6.7,13.5-5.7C276.8,422.5,283.1,430,277.9,437.9z"/>
			<g>
				<path class="st6" d="M284.6,431.4C284.6,431.4,284.5,431.4,284.6,431.4c-0.5,0-0.9-0.4-0.9-0.9c0.2-3.6-2.3-6.8-2.3-6.9
					c-0.3-0.4-0.2-0.9,0.2-1.2c0.4-0.3,0.9-0.2,1.2,0.2c0.1,0.2,2.9,3.8,2.6,8C285.4,431.1,285,431.4,284.6,431.4z"/>
			</g>
			<g>
				<path class="st6" d="M288,432C288,432,288,432,288,432c-0.6,0-0.9-0.5-0.9-0.9c0.3-3.6-1.9-7.1-1.9-7.1
					c-0.3-0.4-0.2-0.9,0.2-1.2c0.4-0.3,0.9-0.2,1.2,0.2c0.1,0.2,2.6,3.9,2.2,8.2C288.8,431.7,288.5,432,288,432z"/>
			</g>
			<g>
				<path class="st6" d="M292.2,432C292.2,432,292.2,432,292.2,432c-0.5,0-0.9-0.4-0.9-0.9c0.1-3-2.1-7.2-2.1-7.2
					c-0.2-0.4-0.1-0.9,0.4-1.2c0.4-0.2,0.9-0.1,1.2,0.4c0.1,0.2,2.4,4.6,2.3,8.1C293,431.6,292.7,432,292.2,432z"/>
			</g>
			<g>
				<path class="st6" d="M296.1,432c-0.1,0-0.2,0-0.2,0c-0.5-0.1-0.7-0.6-0.6-1.1c1-3.6-2.1-7.1-2.1-7.1c-0.3-0.4-0.3-0.9,0.1-1.2
					c0.4-0.3,0.9-0.3,1.2,0.1c0.2,0.2,3.7,4.2,2.5,8.7C296.9,431.8,296.5,432,296.1,432z"/>
			</g>
			<g>
				<path class="st6" d="M300.5,431.4c-0.1,0-0.2,0-0.3,0c-0.5-0.2-0.7-0.6-0.5-1.1c1.1-3.2-1.7-7.2-1.8-7.3
					c-0.3-0.4-0.2-0.9,0.2-1.2c0.4-0.3,0.9-0.2,1.2,0.2c0.1,0.2,3.4,4.8,2,8.8C301.2,431.2,300.8,431.4,300.5,431.4z"/>
			</g>
			<path class="st6" d="M304.6,436.1c3.1,0.8-1,6.9-5.1,4.5C295.4,438.2,301.5,435.3,304.6,436.1z"/>
		</g>
		<path class="st5" d="M268.9,404c4.6,6.5,18.4,13.7,32,19.6c1.5,2.4,4.5,7,8.6,11.2c8.4,8.7,11.9,3.8,11.9,3.8s5.3-0.6,13.2-1.7
			c0.5,1,1.7,2.6,4,2.2c1-0.2,3-1.6,5.2-3.6c19.8-3,46.7-8,54-13.8"/>
		<g>
			<path class="st4" d="M390,391.6c-3.4-3.8-6.9-3.9-14.1-3.4c0,0-18.8,6-31.9,13.9c-13.1,7.9-32.2,16.3-32.2,16.3s-5.8-1.7-9.9,0
				c0,0-2.8,0.2-0.9,5.2"/>
			<path class="st4" d="M398.7,414.2c0,0,0.1,5.8-8.1,9.8"/>
			<path class="st4" d="M307.8,389.9c0,0,13,9.4,15.6,15.6c0,0,5,2.1,7.4,3.8"/>
			<path class="st4" d="M324.4,397.7c0.9,2.7,1.2,5.6,0.5,8.4"/>
			<path class="st4" d="M321.4,391.6c0.7,1,1.3,2.1,1.9,3.3"/>
			<path class="st4" d="M339.9,390.8c0,0,4.4,5.8,5.4,10.5"/>
			<path class="st4" d="M364.1,425.9c1.6-0.1,3.2-0.3,4.8-0.6"/>
			<path class="st4" d="M323.3,421.8c11.9,2.3,24.9,4,37.4,4.3"/>
		</g>
		<path class="st6" d="M411.3,333.6c0,0-2.3,40.9-5.1,43.3s-7.1,3.1-15.4,3.8c-8.3,0.7-44.8,2.9-44.8,2.9l-3.9-11.8
			c0,0,19.4-2,28.1-5.2c8.6-3.2,19.9-5.3,19.9-5.3s-1.6-10.3-1.6-14.7s0-15.7,0-20.9"/>
		<path class="st13" d="M404.1,288.8c8.9,5.5,11.5,18.2,8.5,45.3c0,0,2.6,3.2-1.3,4.8c0,0-14.6-5.4-21.3-1.7c-6.8,3.8-5-5.2-5-5.2
			s-2.8-24.9,3.4-29.4"/>
		<path class="st12" d="M387.5,298.7c0,0-8.6,8.9-1,31.4c0,0-1,4.1-1,5.6c0,1.5,2.1,2.3,2.1,2.3"/>
		<path class="st12" d="M377.5,313.8c0,0,0.6,11,7.4,15.8"/>
		<path class="st12" d="M379.7,288.3c0,0-13.3,5.1-23.9-0.5c-6.3-3.3-3.7-8.7-3.7-8.7"/>
		<g>
			<path class="st19" d="M284.2,391.7h72.3c1.6,0,3.3-0.2,4.8-0.6l14.3-3.7c0.4-0.1,0.7-0.5,0.7-0.9l0,0c0-0.5-0.4-0.9-0.9-0.9
				h-94.2c-0.5,0-0.9,0.4-0.9,0.9v1.3C280.2,389.9,282,391.7,284.2,391.7z"/>
			<path class="st20" d="M277,388.1h72.5c1.3,0,2-1,1.7-2.3l-13.5-52.3c-0.3-1.3-1.6-2.3-2.9-2.3h-72.5c-1.3,0-2,1-1.7,2.3
				l13.5,52.3C274.4,387,275.7,388.1,277,388.1z"/>
			<line class="st4" x1="264.9" y1="332.9" x2="263.5" y2="332.9"/>
			<line class="st4" x1="275.5" y1="332.9" x2="268.4" y2="332.9"/>
			<path class="st4" d="M347.8,381.4l-11.9-46.2c-0.3-1.3-1.6-2.3-2.9-2.3h-55.9"/>
			<line class="st4" x1="348.8" y1="385.5" x2="348.5" y2="384.3"/>
			<path class="st6" d="M298.8,360.9c0,0.4,0.1,0.8,0.3,1.3c0.9,3.2,3.9,5.1,6.6,4.3c2.7-0.8,4.2-4,3.2-7.2
				c-0.9-3.2-3.9-5.1-6.6-4.3c-0.3,0.1-0.6,0.2-0.9,0.4C301.6,357.7,300.6,359.9,298.8,360.9z"/>
		</g>
		<path class="st13" d="M330.8,262.8c-6.3-0.7-9.7-6.7-13.5-7.6c-3.8-0.9-6.2-2-6.2-2s-1.3-4.5-3.2-3c-1.9,1.6-4.5,35.5-2,34.4
			c2.5-1.1,2.5,2.9,2.5,2.9l23.3,20.5l19.5-34.6C351.3,273.6,337.1,263.5,330.8,262.8z"/>
		<g>
			<g>
				<g>
					<polyline class="st8" points="140.9,141.9 140.9,141.4 141.4,141.4 					"/>
					<line class="st21" x1="144.3" y1="141.4" x2="228.9" y2="141.4"/>
					<polyline class="st8" points="230.4,141.4 230.9,141.4 230.9,141.9 					"/>
					<line class="st22" x1="230.9" y1="144.9" x2="230.9" y2="199.4"/>
					<polyline class="st8" points="230.9,200.9 230.9,201.4 230.4,201.4 					"/>
					<line class="st21" x1="227.5" y1="201.4" x2="142.9" y2="201.4"/>
					<polyline class="st8" points="141.4,201.4 140.9,201.4 140.9,200.9 					"/>
					<line class="st22" x1="140.9" y1="197.9" x2="140.9" y2="143.4"/>
				</g>
			</g>
			<circle class="st5" cx="185.9" cy="141.4" r="1.5"/>
			<circle class="st5" cx="140.9" cy="171.4" r="1.5"/>
			<circle class="st5" cx="185.9" cy="201.4" r="1.5"/>
			<circle class="st5" cx="230.9" cy="171.4" r="1.5"/>
			<rect x="229.2" y="199.7" class="st5" width="3.4" height="3.4"/>
			<rect x="229.2" y="139.7" class="st5" width="3.4" height="3.4"/>
			<rect x="139.2" y="199.7" class="st5" width="3.4" height="3.4"/>
			<rect x="139.2" y="139.7" class="st5" width="3.4" height="3.4"/>
		</g>
		<g>
			<rect x="146.9" y="146.7" class="st6" width="78.3" height="49.8"/>
			<polygon class="st5" points="225.2,181.8 216.5,190.5 192.9,166.9 183,176.8 167.2,161 146.9,181.4 146.9,196.5 225.2,196.5 			
				"/>
			<circle class="st5" cx="209" cy="160.8" r="5.5"/>
		</g>
		<path class="st12" d="M335,272c0,0-5.9,11.2-6.7,28.3"/>
		<path class="st12" d="M317.4,279.7c0,0,1.8,9.5,7,16.4"/>
		<path class="st12" d="M342,318.9c0,0,9,29.6,28.6,38.3"/>
		<path class="st13" d="M365.7,265.4c0,0-0.9,6.4-7,6.9c-0.7-1.5-1.7-3.1-2.8-4.6C360,266.4,365.7,265.4,365.7,265.4z"/>
		<g>
			<path class="st6" d="M378.9,265.9c0,0,10.4,1.3,14.7-12.7c4.3-13.9,0.9-24.4-16.2-29.5c-9.5-2.8-19-0.5-22.5,6.7
				c-2.9,6.2-1.6,11.3-2.2,13.4c-0.8,2.3-7.8,4.3-7.8,5.9c0,1.3,3.9,3.6,3.9,3.6l-1.1,3.5l1.1,0.6c0,0-2,7.8-1.1,10.5
				c0.7,2,18.2,2.8,19.6-2.1"/>
			<path class="st4" d="M355,235.5c0,0,3.4,0.9,4.4,2.7"/>
			<path class="st13" d="M355.6,243.4c-0.1,1,0.1,1.9,0.5,1.9c0.4,0.1,0.9-0.7,1.1-1.7c0.1-1-0.1-1.9-0.5-1.9
				C356.2,241.6,355.7,242.4,355.6,243.4z"/>
			<path class="st4" d="M348.7,257.3c0,0,5.6,2.1,7.7,0.8"/>
			<path class="st4" d="M350.7,242.6c-0.4,2.2,0.1,4.2,1.1,4.4c1,0.2,2.2-1.5,2.6-3.7c0.4-2.2-0.1-4.2-1.1-4.4
				C352.3,238.7,351.1,240.3,350.7,242.6z"/>
			<path class="st13" d="M394.1,231.2c0,0-0.8-5.8-6.5-10.1c-5.7-4.2-12.6-5.1-12.6-5.1s3.3,1.4,4.6,3.4c0,0-8.6-6.4-18.7-2.2
				c-10.2,4.2-8.9,15.2-8.9,15.2l1.5-2.9c0,0-0.2,3.4,1.6,4.7c0,0,1.1-3.3,2.2-4.8c0,0,2.7,8.1,10.1,10.9c0,0-0.8-1.6-0.1-4
				c0,0,4.1,8.9,2.9,13.3l1.3,2.3c0,0,4.7-4.8,8.6-0.8c2.2,2.3-4.2,11-5.1,11l3.9,5.7c0,0,9.7,1.4,15.3-9.1c5.6-10.5,4.2-15,4.2-15
				s1.8,2.6,2.1,4C400.3,247.5,401.9,236.2,394.1,231.2z"/>
			<path class="st6" d="M371.2,252.8c0,0,3-10.1,9.4-6.5s1.8,8.9-0.5,11c-2.3,2.1-4,5.8-5.5,5.8c-1.5,0-1.8-1.8-1.8-1.8"/>
			<line class="st4" x1="354.4" y1="243.3" x2="372.2" y2="247"/>
		</g>
	</g>
</g>
</svg>
